<svg width="32" height="32" fill="none" xmlns="http://www.w3.org/2000/svg"><path d="M6.2 7c1.429 0 2.948.32 4.557.957a20.865 20.865 0 0 1 4.6 2.515l-.542.385a18.902 18.902 0 0 0-4.143-2.286c-1.429-.561-2.79-.842-4.086-.842-.82 0-1.453.142-1.9.428-.438.276-.657.648-.657 1.114 0 .296.09.586.271.872.19.276.438.486.743.628l-.686.343H6.2v.515H4.83v8.057H3.37V11.63H2v-.515h1.471a2.807 2.807 0 0 1-.657-.871 2.217 2.217 0 0 1-.243-.972c0-.428.148-.814.443-1.157.305-.352.729-.624 1.272-.814.552-.2 1.19-.3 1.914-.3Z" fill="url(#a)"/><path d="M9.908 10.6c.876 0 1.59.238 2.143.714.562.477.843 1.124.843 1.943 0 .629-.215 1.21-.643 1.743-.42.534-.995.957-1.729 1.272a6.049 6.049 0 0 1-2.371.457c.647.59 1.18 1.043 1.6 1.357.419.305.805.524 1.157.657.352.134.733.2 1.143.2a1.52 1.52 0 0 1-.557.657 1.27 1.27 0 0 1-.715.229c-.371 0-.776-.143-1.214-.429-.429-.285-.948-.69-1.557-1.214-.42-.362-.757-.628-1.015-.8-.247-.18-.452-.271-.614-.271 0-.22.09-.41.272-.572.19-.162.485-.243.885-.243.648 0 1.272-.119 1.872-.357.6-.248 1.086-.595 1.457-1.043.381-.457.572-.976.572-1.557 0-.771-.153-1.338-.458-1.7-.304-.371-.662-.557-1.071-.557-.353 0-.657.152-.914.457-.258.305-.386.733-.386 1.286 0 .533.171.99.514 1.371.352.372.781.557 1.286.557-.038.115-.162.215-.372.3-.21.086-.414.129-.614.129-.428 0-.814-.095-1.157-.286a2.26 2.26 0 0 1-.814-.8c-.2-.333-.3-.7-.3-1.1 0-.486.119-.91.357-1.271a2.374 2.374 0 0 1 1-.829c.419-.2.886-.3 1.4-.3Zm7.186 1.029h-1.372v8.057h-1.457V11.63h-1.2v-.515h4.029v.515Z" fill="url(#b)"/><path d="M23.275 16.772c-.247.628-.623 1.128-1.128 1.5a2.82 2.82 0 0 1-1.715.557c-.58 0-1.095-.124-1.542-.372a2.616 2.616 0 0 1-1.043-1.042c-.248-.448-.372-.962-.372-1.543 0-.686.124-1.281.372-1.786.247-.514.59-.91 1.028-1.186a2.727 2.727 0 0 1 1.486-.414c.705 0 1.252.133 1.643.4.4.257.6.61.6 1.057a.908.908 0 0 1-.372.757c-.238.19-.552.286-.942.286 0-.572-.072-1.057-.215-1.457-.143-.41-.38-.614-.714-.614-.267 0-.51.123-.729.37-.219.248-.39.577-.514.987-.124.4-.186.819-.186 1.257 0 .79.162 1.443.486 1.957.333.505.814.757 1.443.757.514 0 .99-.224 1.429-.671.447-.448.776-1.029.985-1.743v-4.2h-6.528v-.515h12.639v.45l-4.653.065-.582 12.46-.876-7.317Z" fill="url(#c)"/><g clip-path="url(#d)"><path d="M29.622 21.755h.184v.46h-4.069v-.46h.184c-.099-2.203-.41-4.15-1.116-5.626 1.19-1.64 2.163-3.26 2.718-4.843l.248-.162-.073.162.073-.16-.043 5.02h-.122v.134l-.096.146v.57h.104v.346h.315v-.346h.104v-.57l-.096-.146v-.134h-.122l-.044-5.022.105.162h-.005l-.1-.162.25.162c.554 1.582 1.526 3.203 2.717 4.843-.705 1.475-1.017 3.422-1.116 5.626Z" fill="url(#e)"/><path d="M27.735 17.272h-.094v-.095h.094v.095Z" fill="url(#f)"/><path d="M27.893 17.272H27.8v-.095h.094v.095Z" fill="url(#g)"/></g><defs><linearGradient id="a" x1="-.752" y1="9.167" x2="24.346" y2="24.089" gradientUnits="userSpaceOnUse"><stop stop-color="#FFE53B"/><stop offset="1" stop-color="#FF2525"/></linearGradient><linearGradient id="b" x1="-.752" y1="9.167" x2="24.346" y2="24.089" gradientUnits="userSpaceOnUse"><stop stop-color="#FFE53B"/><stop offset="1" stop-color="#FF2525"/></linearGradient><linearGradient id="c" x1="-.752" y1="9.167" x2="24.346" y2="24.089" gradientUnits="userSpaceOnUse"><stop stop-color="#FFE53B"/><stop offset="1" stop-color="#FF2525"/></linearGradient><linearGradient id="e" x1="27.771" y1="22.215" x2="27.771" y2="11.287" gradientUnits="userSpaceOnUse"><stop stop-color="#B6B6B6" stop-opacity=".29"/><stop offset=".998" stop-color="#EFEFEF"/></linearGradient><linearGradient id="f" x1="27.688" y1="17.272" x2="27.688" y2="17.177" gradientUnits="userSpaceOnUse"><stop stop-color="#fff" stop-opacity=".29"/><stop offset=".998" stop-color="#fff"/></linearGradient><linearGradient id="g" x1="27.846" y1="17.272" x2="27.846" y2="17.177" gradientUnits="userSpaceOnUse"><stop stop-color="#fff" stop-opacity=".29"/><stop offset=".998" stop-color="#fff"/></linearGradient><clipPath id="d"><path fill="#fff" transform="matrix(1 0 0 -1 24.542 22.426)" d="M0 0h6.458v11.351H0z"/></clipPath></defs></svg>