<svg width="98" height="165" fill="none" xmlns="http://www.w3.org/2000/svg"><path d="M.679 140.569c0-8.079 1.804-16.67 5.413-25.772 3.554-9.102 8.294-17.774 14.219-26.015l2.181 3.07c-5.44 7.54-9.749 15.351-12.926 23.43-3.178 8.079-4.767 15.781-4.767 23.106 0 4.632.808 8.214 2.424 10.745 1.562 2.478 3.662 3.716 6.301 3.716 1.67 0 3.313-.511 4.929-1.535a10.346 10.346 0 0 0 3.554-4.201l1.94 3.878v-10.422h2.908v7.756H72.42v8.241H26.855v7.756h-2.909V156a15.878 15.878 0 0 1-4.928 3.717c-1.885.915-3.716 1.373-5.494 1.373-2.423 0-4.605-.835-6.544-2.504-1.992-1.724-3.527-4.121-4.605-7.191-1.13-3.124-1.696-6.732-1.696-10.826Z" fill="url(#a)"/><path d="M21.038 119.602c0-4.956 1.346-8.995 4.04-12.119 2.692-3.178 6.355-4.767 10.987-4.767 3.555 0 6.84 1.212 9.857 3.636 3.016 2.37 5.412 5.628 7.19 9.776 1.723 4.093 2.585 8.563 2.585 13.411 3.34-3.663 5.898-6.679 7.675-9.049 1.724-2.37 2.963-4.551 3.717-6.544.754-1.993 1.13-4.147 1.13-6.463 1.617.754 2.855 1.804 3.717 3.151.862 1.292 1.293 2.639 1.293 4.039 0 2.101-.808 4.39-2.424 6.868-1.616 2.423-3.905 5.359-6.867 8.806-2.047 2.37-3.555 4.282-4.525 5.736-1.023 1.4-1.534 2.558-1.534 3.474-1.24 0-2.316-.512-3.232-1.535-.916-1.077-1.374-2.747-1.374-5.009a28.44 28.44 0 0 0-2.02-10.584c-1.4-3.393-3.366-6.14-5.897-8.24-2.585-2.155-5.52-3.232-8.806-3.232-4.363 0-7.568.862-9.614 2.585-2.1 1.724-3.151 3.744-3.151 6.06 0 1.992.862 3.716 2.585 5.17 1.724 1.454 4.147 2.181 7.271 2.181 3.017 0 5.602-.969 7.756-2.908 2.1-1.993 3.151-4.417 3.151-7.271.646.215 1.212.915 1.697 2.1.484 1.185.727 2.343.727 3.474 0 2.424-.539 4.605-1.616 6.544-1.131 1.939-2.64 3.474-4.524 4.606-1.886 1.131-3.96 1.696-6.221 1.696-2.747 0-5.144-.673-7.19-2.02-2.047-1.4-3.61-3.285-4.686-5.655-1.131-2.37-1.697-5.009-1.697-7.917Zm5.817-40.638v7.756H72.42v8.24H26.855v6.787h-2.909V78.964h2.909Z" fill="url(#b)"/><path d="M55.94 44.006c3.554 1.4 6.382 3.528 8.483 6.383 2.1 2.854 3.15 6.086 3.15 9.694 0 3.286-.7 6.194-2.1 8.726a14.798 14.798 0 0 1-5.898 5.898c-2.531 1.4-5.44 2.1-8.725 2.1-3.878 0-7.245-.7-10.1-2.1-2.908-1.4-5.143-3.34-6.705-5.817-1.562-2.478-2.343-5.279-2.343-8.403 0-3.985.754-7.082 2.262-9.29 1.455-2.263 3.447-3.394 5.979-3.394 1.777 0 3.205.7 4.282 2.1 1.077 1.347 1.616 3.125 1.616 5.333-3.232 0-5.979.404-8.241 1.212-2.316.808-3.474 2.154-3.474 4.04 0 1.508.7 2.881 2.1 4.12 1.401 1.239 3.26 2.208 5.575 2.908 2.262.7 4.632 1.05 7.11 1.05 4.47 0 8.16-.915 11.068-2.746 2.855-1.885 4.282-4.605 4.282-8.16 0-2.909-1.266-5.602-3.797-8.08-2.532-2.53-5.817-4.389-9.857-5.574H26.855v36.921h-2.909V9.453h2.546l.363 26.314 70.467 3.29-41.383 4.95Z" fill="url(#c)"/><g clip-path="url(#d)"><path d="M84.122 8.119v-1.04h2.599v23.007h-2.599v-1.04c-12.462.559-23.474 2.325-31.816 6.314-9.277-6.735-18.44-12.233-27.386-15.37l-.918-1.407.918.415-.907-.41 28.388.242v.686h.758l.825.546h3.223v-.587h1.958V17.69h-1.958v-.587h-3.223l-.825.546h-.758v.686l-28.399.248.918-.593v.029l-.918.564.918-1.407C33.866 14.038 43.03 8.54 52.306 1.805c8.342 3.99 19.354 5.755 31.816 6.314Z" fill="url(#e)"/><path d="M58.772 18.784v.536h-.54v-.536h.54Z" fill="url(#f)"/><path d="M58.772 17.892v.536h-.54v-.537h.54Z" fill="url(#g)"/></g><defs><linearGradient id="a" x1="12.934" y1="179.887" x2="97.322" y2="37.95" gradientUnits="userSpaceOnUse"><stop stop-color="#FFE53B"/><stop offset="1" stop-color="#FF2525"/></linearGradient><linearGradient id="b" x1="12.934" y1="179.887" x2="97.322" y2="37.95" gradientUnits="userSpaceOnUse"><stop stop-color="#FFE53B"/><stop offset="1" stop-color="#FF2525"/></linearGradient><linearGradient id="c" x1="12.934" y1="179.887" x2="97.322" y2="37.95" gradientUnits="userSpaceOnUse"><stop stop-color="#FFE53B"/><stop offset="1" stop-color="#FF2525"/></linearGradient><linearGradient id="e" x1="86.721" y1="18.583" x2="24.92" y2="18.583" gradientUnits="userSpaceOnUse"><stop stop-color="#B6B6B6" stop-opacity=".29"/><stop offset=".998" stop-color="#EFEFEF"/></linearGradient><linearGradient id="f" x1="58.772" y1="19.052" x2="58.231" y2="19.052" gradientUnits="userSpaceOnUse"><stop stop-color="#fff" stop-opacity=".29"/><stop offset=".998" stop-color="#fff"/></linearGradient><linearGradient id="g" x1="58.772" y1="18.16" x2="58.231" y2="18.16" gradientUnits="userSpaceOnUse"><stop stop-color="#fff" stop-opacity=".29"/><stop offset=".998" stop-color="#fff"/></linearGradient><clipPath id="d"><path fill="#fff" transform="matrix(0 -1 -1 0 87.915 36.843)" d="M0 0h36.522v64.19H0z"/></clipPath></defs></svg>