<svg width="164" height="97" fill="none" xmlns="http://www.w3.org/2000/svg"><path d="M23.752 0c8.08 0 16.67 1.804 25.773 5.413 9.102 3.555 17.774 8.294 26.014 14.22l-3.07 2.18c-7.54-5.44-15.35-9.748-23.43-12.926C40.962 5.709 33.26 4.12 25.935 4.12c-4.632 0-8.214.808-10.745 2.424-2.478 1.562-3.717 3.663-3.717 6.302 0 1.67.512 3.312 1.535 4.928a10.351 10.351 0 0 0 4.201 3.555l-3.877 1.939h10.421v2.908h-7.755v45.566H7.755V26.176H0v-2.908h8.321a15.871 15.871 0 0 1-3.716-4.928c-.916-1.886-1.373-3.717-1.373-5.494 0-2.424.834-4.605 2.504-6.544 1.724-1.993 4.12-3.528 7.19-4.605C16.05.566 19.66 0 23.753 0Z" fill="url(#a)"/><path d="M44.72 20.36c4.955 0 8.995 1.346 12.119 4.039 3.178 2.693 4.766 6.355 4.766 10.987 0 3.555-1.211 6.84-3.635 9.857-2.37 3.016-5.629 5.413-9.776 7.19-4.093 1.724-8.564 2.585-13.411 2.585 3.662 3.34 6.679 5.898 9.048 7.675 2.37 1.724 4.552 2.963 6.544 3.717 1.993.754 4.148 1.131 6.464 1.131-.754 1.616-1.805 2.855-3.151 3.716-1.293.862-2.64 1.293-4.04 1.293-2.1 0-4.39-.808-6.867-2.424-2.424-1.616-5.359-3.905-8.806-6.867-2.37-2.047-4.282-3.555-5.736-4.524-1.4-1.024-2.559-1.535-3.474-1.535 0-1.239.511-2.316 1.535-3.232 1.077-.916 2.747-1.373 5.009-1.373 3.662 0 7.19-.674 10.583-2.02 3.394-1.4 6.14-3.366 8.241-5.898 2.154-2.585 3.232-5.52 3.232-8.806 0-4.363-.862-7.567-2.586-9.614-1.723-2.1-3.743-3.15-6.059-3.15-1.993 0-3.716.86-5.17 2.584-1.455 1.724-2.182 4.148-2.182 7.272 0 3.016.97 5.601 2.909 7.755 1.992 2.101 4.416 3.151 7.27 3.151-.215.647-.915 1.212-2.1 1.697-1.185.485-2.343.727-3.474.727-2.423 0-4.605-.539-6.544-1.616-1.939-1.13-3.474-2.639-4.605-4.524-1.13-1.885-1.697-3.959-1.697-6.22 0-2.748.674-5.145 2.02-7.191 1.4-2.047 3.286-3.609 5.656-4.686 2.37-1.131 5.009-1.697 7.917-1.697Zm40.638 5.816h-7.756v45.566h-8.24V26.176h-6.787v-2.908h22.783v2.908Z" fill="url(#b)"/><path d="M120.316 55.26c-1.401 3.556-3.528 6.383-6.383 8.484-2.855 2.1-6.086 3.15-9.695 3.15-3.285 0-6.194-.7-8.725-2.1a14.798 14.798 0 0 1-5.898-5.898c-1.4-2.531-2.1-5.44-2.1-8.725 0-3.878.7-7.244 2.1-10.099 1.4-2.908 3.34-5.144 5.817-6.706 2.478-1.561 5.278-2.342 8.402-2.342 3.986 0 7.083.754 9.291 2.262 2.262 1.454 3.393 3.447 3.393 5.978 0 1.778-.7 3.205-2.1 4.282-1.347 1.077-3.124 1.616-5.332 1.616 0-3.232-.404-5.979-1.212-8.24-.808-2.317-2.155-3.475-4.04-3.475-1.508 0-2.881.7-4.12 2.1-1.239 1.401-2.208 3.26-2.909 5.575-.7 2.263-1.05 4.632-1.05 7.11 0 4.47.916 8.16 2.747 11.068 1.885 2.855 4.605 4.282 8.16 4.282 2.908 0 5.601-1.266 8.079-3.797 2.531-2.531 4.39-5.817 5.575-9.856V26.176H83.394v-2.908h71.476v2.545l-26.314.363-3.291 70.467-4.949-41.382Z" fill="url(#c)"/><g clip-path="url(#d)"><path d="M156.204 83.443h1.039v2.598h-23.007v-2.598h1.04c-.559-12.462-2.324-23.474-6.314-31.817 6.735-9.276 12.233-18.44 15.371-27.385l1.406-.918-.415.918.411-.907-.243 28.388h-.686v.758l-.546.824v3.224h.587v1.957h1.785v-1.957h.587v-3.224l-.546-.824v-.758h-.686l-.248-28.399.594.918h-.03l-.564-.918 1.407.918c3.138 8.946 8.636 18.109 15.371 27.385-3.989 8.343-5.755 19.355-6.313 31.817Z" fill="url(#e)"/><path d="M145.538 58.092h-.536v-.54h.536v.54Z" fill="url(#f)"/><path d="M146.431 58.092h-.536v-.54h.536v.54Z" fill="url(#g)"/></g><defs><linearGradient id="a" x1="-15.565" y1="12.256" x2="126.372" y2="96.643" gradientUnits="userSpaceOnUse"><stop stop-color="#FFE53B"/><stop offset="1" stop-color="#FF2525"/></linearGradient><linearGradient id="b" x1="-15.565" y1="12.256" x2="126.372" y2="96.643" gradientUnits="userSpaceOnUse"><stop stop-color="#FFE53B"/><stop offset="1" stop-color="#FF2525"/></linearGradient><linearGradient id="c" x1="-15.565" y1="12.256" x2="126.372" y2="96.643" gradientUnits="userSpaceOnUse"><stop stop-color="#FFE53B"/><stop offset="1" stop-color="#FF2525"/></linearGradient><linearGradient id="e" x1="145.74" y1="86.041" x2="145.74" y2="24.241" gradientUnits="userSpaceOnUse"><stop stop-color="#B6B6B6" stop-opacity=".29"/><stop offset=".998" stop-color="#EFEFEF"/></linearGradient><linearGradient id="f" x1="145.27" y1="58.092" x2="145.27" y2="57.551" gradientUnits="userSpaceOnUse"><stop stop-color="#fff" stop-opacity=".29"/><stop offset=".998" stop-color="#fff"/></linearGradient><linearGradient id="g" x1="146.163" y1="58.092" x2="146.163" y2="57.551" gradientUnits="userSpaceOnUse"><stop stop-color="#fff" stop-opacity=".29"/><stop offset=".998" stop-color="#fff"/></linearGradient><clipPath id="d"><path fill="#fff" transform="matrix(1 0 0 -1 127.479 87.236)" d="M0 0h36.522v64.19H0z"/></clipPath></defs></svg>